<mxfile host="app.diagrams.net" agent="Mozilla/5.0 (X11; Linux x86_64) AppleWebKit/537.36 (KHTML, like Gecko) Chrome/136.0.0.0 Safari/537.36" version="27.0.9">
  <diagram name="Page-1" id="e7e014a7-5840-1c2e-5031-d8a46d1fe8dd">
    <mxGraphModel dx="2037" dy="1133" grid="1" gridSize="10" guides="1" tooltips="1" connect="1" arrows="1" fold="1" page="1" pageScale="1" pageWidth="1169" pageHeight="826" background="none" math="0" shadow="0">
      <root>
        <mxCell id="0" />
        <mxCell id="1" parent="0" />
        <mxCell id="2" value="Professor" style="swimlane;whiteSpace=wrap" parent="1" vertex="1">
          <mxGeometry x="150" y="80" width="280" height="680" as="geometry" />
        </mxCell>
        <mxCell id="5LyRE0h_gIaYNYSIcGGZ-67" style="edgeStyle=orthogonalEdgeStyle;rounded=0;orthogonalLoop=1;jettySize=auto;html=1;exitX=0.5;exitY=1;exitDx=0;exitDy=0;entryX=0.5;entryY=0;entryDx=0;entryDy=0;" edge="1" parent="2" source="5" target="5LyRE0h_gIaYNYSIcGGZ-66">
          <mxGeometry relative="1" as="geometry" />
        </mxCell>
        <mxCell id="5" value="" style="ellipse;shape=startState;fillColor=#000000;strokeColor=#ff0000;" parent="2" vertex="1">
          <mxGeometry x="125" y="40" width="30" height="30" as="geometry" />
        </mxCell>
        <mxCell id="5LyRE0h_gIaYNYSIcGGZ-49" value="" style="ellipse;html=1;shape=endState;fillColor=#000000;strokeColor=#ff0000;" vertex="1" parent="2">
          <mxGeometry x="125" y="640" width="30" height="30" as="geometry" />
        </mxCell>
        <mxCell id="5LyRE0h_gIaYNYSIcGGZ-69" style="edgeStyle=orthogonalEdgeStyle;rounded=0;orthogonalLoop=1;jettySize=auto;html=1;exitX=0.5;exitY=1;exitDx=0;exitDy=0;entryX=0.5;entryY=0;entryDx=0;entryDy=0;" edge="1" parent="2" source="5LyRE0h_gIaYNYSIcGGZ-66" target="5LyRE0h_gIaYNYSIcGGZ-68">
          <mxGeometry relative="1" as="geometry" />
        </mxCell>
        <mxCell id="5LyRE0h_gIaYNYSIcGGZ-66" value="View Student Profile" style="rounded=1;whiteSpace=wrap;html=1;" vertex="1" parent="2">
          <mxGeometry x="80" y="100" width="120" height="60" as="geometry" />
        </mxCell>
        <mxCell id="5LyRE0h_gIaYNYSIcGGZ-80" style="edgeStyle=orthogonalEdgeStyle;rounded=0;orthogonalLoop=1;jettySize=auto;html=1;exitX=0.5;exitY=1;exitDx=0;exitDy=0;entryX=0.5;entryY=0;entryDx=0;entryDy=0;" edge="1" parent="2" source="5LyRE0h_gIaYNYSIcGGZ-68" target="5LyRE0h_gIaYNYSIcGGZ-79">
          <mxGeometry relative="1" as="geometry" />
        </mxCell>
        <mxCell id="5LyRE0h_gIaYNYSIcGGZ-68" value="Click &#39;Letter&#39; Button" style="rounded=1;whiteSpace=wrap;html=1;" vertex="1" parent="2">
          <mxGeometry x="80" y="180" width="120" height="60" as="geometry" />
        </mxCell>
        <mxCell id="5LyRE0h_gIaYNYSIcGGZ-79" value="Select PDF Template" style="rounded=1;whiteSpace=wrap;html=1;" vertex="1" parent="2">
          <mxGeometry x="80" y="260" width="120" height="60" as="geometry" />
        </mxCell>
        <mxCell id="5LyRE0h_gIaYNYSIcGGZ-87" style="edgeStyle=orthogonalEdgeStyle;rounded=0;orthogonalLoop=1;jettySize=auto;html=1;exitX=0.5;exitY=1;exitDx=0;exitDy=0;entryX=0.5;entryY=0;entryDx=0;entryDy=0;" edge="1" parent="2" source="5LyRE0h_gIaYNYSIcGGZ-84" target="5LyRE0h_gIaYNYSIcGGZ-49">
          <mxGeometry relative="1" as="geometry" />
        </mxCell>
        <mxCell id="5LyRE0h_gIaYNYSIcGGZ-84" value="" style="rounded=0;whiteSpace=wrap;html=1;fillColor=#000000;" vertex="1" parent="2">
          <mxGeometry x="80" y="590" width="120" height="20" as="geometry" />
        </mxCell>
        <mxCell id="5LyRE0h_gIaYNYSIcGGZ-75" value="Show Error &quot;Student Not Found&quot;" style="rounded=1;whiteSpace=wrap;html=1;" vertex="1" parent="2">
          <mxGeometry x="10" y="390" width="120" height="60" as="geometry" />
        </mxCell>
        <mxCell id="5LyRE0h_gIaYNYSIcGGZ-85" style="edgeStyle=orthogonalEdgeStyle;rounded=0;orthogonalLoop=1;jettySize=auto;html=1;exitX=0.5;exitY=1;exitDx=0;exitDy=0;entryX=0.5;entryY=0;entryDx=0;entryDy=0;" edge="1" parent="2" source="5LyRE0h_gIaYNYSIcGGZ-75" target="5LyRE0h_gIaYNYSIcGGZ-84">
          <mxGeometry relative="1" as="geometry" />
        </mxCell>
        <mxCell id="5LyRE0h_gIaYNYSIcGGZ-89" style="edgeStyle=orthogonalEdgeStyle;rounded=0;orthogonalLoop=1;jettySize=auto;html=1;exitX=0.5;exitY=1;exitDx=0;exitDy=0;entryX=0.5;entryY=0;entryDx=0;entryDy=0;" edge="1" parent="2" source="5LyRE0h_gIaYNYSIcGGZ-88" target="5LyRE0h_gIaYNYSIcGGZ-84">
          <mxGeometry relative="1" as="geometry" />
        </mxCell>
        <mxCell id="5LyRE0h_gIaYNYSIcGGZ-88" value="Download PDF" style="rounded=1;whiteSpace=wrap;html=1;" vertex="1" parent="2">
          <mxGeometry x="150" y="460" width="120" height="60" as="geometry" />
        </mxCell>
        <mxCell id="3" value="Students Service" style="swimlane;whiteSpace=wrap;direction=east;" parent="1" vertex="1">
          <mxGeometry x="430" y="80" width="280" height="680" as="geometry" />
        </mxCell>
        <mxCell id="5LyRE0h_gIaYNYSIcGGZ-73" value="" style="rhombus;whiteSpace=wrap;html=1;" vertex="1" parent="3">
          <mxGeometry x="120" y="400" width="40" height="40" as="geometry" />
        </mxCell>
        <mxCell id="5LyRE0h_gIaYNYSIcGGZ-77" value="Not Found" style="text;html=1;align=center;verticalAlign=middle;whiteSpace=wrap;rounded=0;" vertex="1" parent="3">
          <mxGeometry x="30" y="390" width="60" height="30" as="geometry" />
        </mxCell>
        <mxCell id="5LyRE0h_gIaYNYSIcGGZ-70" value="Get Student" style="rounded=1;whiteSpace=wrap;html=1;" vertex="1" parent="3">
          <mxGeometry x="80" y="260" width="120" height="60" as="geometry" />
        </mxCell>
        <mxCell id="5LyRE0h_gIaYNYSIcGGZ-74" style="edgeStyle=orthogonalEdgeStyle;rounded=0;orthogonalLoop=1;jettySize=auto;html=1;exitX=0.5;exitY=1;exitDx=0;exitDy=0;entryX=0.5;entryY=0;entryDx=0;entryDy=0;" edge="1" parent="3" source="5LyRE0h_gIaYNYSIcGGZ-70" target="5LyRE0h_gIaYNYSIcGGZ-73">
          <mxGeometry relative="1" as="geometry" />
        </mxCell>
        <mxCell id="5LyRE0h_gIaYNYSIcGGZ-83" value="Found" style="text;html=1;align=center;verticalAlign=middle;whiteSpace=wrap;rounded=0;" vertex="1" parent="3">
          <mxGeometry x="190" y="390" width="60" height="30" as="geometry" />
        </mxCell>
        <mxCell id="5LyRE0h_gIaYNYSIcGGZ-41" value="Create Reference Letter" style="text;html=1;align=center;verticalAlign=middle;whiteSpace=wrap;rounded=0;fontSize=36;fontStyle=1" vertex="1" parent="1">
          <mxGeometry x="155" y="20" width="840" height="50" as="geometry" />
        </mxCell>
        <mxCell id="5LyRE0h_gIaYNYSIcGGZ-63" value="Letters Service" style="swimlane;whiteSpace=wrap;direction=east;" vertex="1" parent="1">
          <mxGeometry x="710" y="80" width="280" height="680" as="geometry" />
        </mxCell>
        <mxCell id="5LyRE0h_gIaYNYSIcGGZ-78" value="Create Reference Letter using selected PDF Template" style="rounded=1;whiteSpace=wrap;html=1;" vertex="1" parent="5LyRE0h_gIaYNYSIcGGZ-63">
          <mxGeometry x="90" y="390" width="120" height="60" as="geometry" />
        </mxCell>
        <mxCell id="5LyRE0h_gIaYNYSIcGGZ-81" style="edgeStyle=orthogonalEdgeStyle;rounded=0;orthogonalLoop=1;jettySize=auto;html=1;exitX=1;exitY=0.5;exitDx=0;exitDy=0;entryX=0;entryY=0.5;entryDx=0;entryDy=0;" edge="1" parent="1" source="5LyRE0h_gIaYNYSIcGGZ-79" target="5LyRE0h_gIaYNYSIcGGZ-70">
          <mxGeometry relative="1" as="geometry" />
        </mxCell>
        <mxCell id="5LyRE0h_gIaYNYSIcGGZ-82" style="edgeStyle=orthogonalEdgeStyle;rounded=0;orthogonalLoop=1;jettySize=auto;html=1;exitX=1;exitY=0.5;exitDx=0;exitDy=0;entryX=0;entryY=0.5;entryDx=0;entryDy=0;" edge="1" parent="1" source="5LyRE0h_gIaYNYSIcGGZ-73" target="5LyRE0h_gIaYNYSIcGGZ-78">
          <mxGeometry relative="1" as="geometry" />
        </mxCell>
        <mxCell id="5LyRE0h_gIaYNYSIcGGZ-86" style="edgeStyle=orthogonalEdgeStyle;rounded=0;orthogonalLoop=1;jettySize=auto;html=1;exitX=0.5;exitY=1;exitDx=0;exitDy=0;entryX=1;entryY=0.5;entryDx=0;entryDy=0;" edge="1" parent="1" source="5LyRE0h_gIaYNYSIcGGZ-78" target="5LyRE0h_gIaYNYSIcGGZ-88">
          <mxGeometry relative="1" as="geometry" />
        </mxCell>
        <mxCell id="5LyRE0h_gIaYNYSIcGGZ-76" style="edgeStyle=orthogonalEdgeStyle;rounded=0;orthogonalLoop=1;jettySize=auto;html=1;exitX=0;exitY=0.5;exitDx=0;exitDy=0;entryX=1;entryY=0.5;entryDx=0;entryDy=0;" edge="1" parent="1" source="5LyRE0h_gIaYNYSIcGGZ-73" target="5LyRE0h_gIaYNYSIcGGZ-75">
          <mxGeometry relative="1" as="geometry" />
        </mxCell>
      </root>
    </mxGraphModel>
  </diagram>
</mxfile>
